<svg width="140" height="60" viewBox="0 0 140 60" fill="none" xmlns="http://www.w3.org/2000/svg">
<path d="M34.3756 49.2061C60.3902 49.2061 86.3388 49.2061 112.349 49.2061C112.349 52.7083 112.349 56.1787 112.349 59.6967C74.965 59.6967 37.5615 59.6967 0.105539 59.6967C0.105539 56.2375 0.105539 52.7674 0.105539 49.2061C11.4881 49.2061 22.8989 49.2061 34.3756 49.2061ZM22.7608 56.1094C22.7608 54.9207 22.7608 53.7319 22.7608 52.5431C22.7975 52.5415 22.8341 52.5399 22.8708 52.5383C23.1584 53.4848 23.4459 54.4312 23.7304 55.3676C24.0131 55.3676 24.23 55.3676 24.4831 55.3676C24.7609 54.4826 25.0364 53.6046 25.312 52.7266C25.3566 52.7335 25.4011 52.7403 25.4457 52.7471C25.4457 54.2183 25.4457 55.6895 25.4457 57.1714C25.6864 57.1714 25.8752 57.1714 26.0626 57.1714C26.0626 55.3362 26.0626 53.5295 26.0626 51.7184C25.6573 51.7184 25.2893 51.7184 24.9008 51.7184C24.6582 52.6063 24.4211 53.4741 24.1459 54.4812C23.8622 53.4626 23.6177 52.5852 23.3766 51.7196C22.9293 51.7196 22.5634 51.7196 22.1467 51.7196C22.1467 53.5487 22.1467 55.3515 22.1467 57.1773C22.3339 57.1773 22.5194 57.1773 22.7608 57.1773C22.7608 56.8481 22.7608 56.5345 22.7608 56.1094ZM42.2577 57.197C42.4419 57.1867 42.6261 57.1764 42.846 57.1641C42.846 55.5965 42.846 54.0812 42.846 52.5659C43.2818 53.802 43.6528 55.0425 44.0105 56.2858C44.2861 57.2437 44.2787 57.2457 45.4627 57.1848C45.4973 57.1831 45.5293 57.1466 45.5507 57.1334C45.5507 55.3207 45.5507 53.5169 45.5507 51.6832C45.3181 51.7001 45.1318 51.7137 44.8699 51.7328C44.8699 53.2296 44.8699 54.689 44.8699 56.1485C44.3629 54.9414 44.0075 53.7198 43.6329 52.5025C43.3441 51.5642 43.632 51.708 42.403 51.6955C42.3224 51.6947 42.2415 51.7184 42.0622 51.7457C42.0622 52.9672 42.0543 54.1792 42.0657 55.3911C42.0712 55.9835 42.1129 56.5757 42.2577 57.197ZM3.48513 53.7477C3.59126 54.1097 3.73527 54.4674 3.79445 54.8349C3.87855 55.3572 4.18463 55.4849 4.76059 55.3167C5.05516 54.3564 5.34928 53.3976 5.6434 52.4387C5.67202 52.4427 5.70065 52.4467 5.72928 52.4507C5.72928 54.0178 5.72928 55.5849 5.72928 57.1585C5.96496 57.1585 6.16206 57.1585 6.33086 57.1585C6.33086 55.3141 6.33086 53.51 6.33086 51.7083C5.15562 51.6742 5.15871 51.6748 4.92467 52.5777C4.77713 53.1469 4.61866 53.714 4.46509 54.2821C4.15111 53.5858 3.93384 52.8922 3.79527 52.1875C3.71709 51.79 3.53317 51.6314 3.0651 51.69C2.85938 51.7158 2.64548 51.6944 2.42551 51.6944C2.42551 53.5702 2.42551 55.3744 2.42551 57.2122C2.65513 57.1909 2.83929 57.1738 3.08709 57.1507C3.08709 55.7302 3.08709 54.3462 3.08709 52.9621C3.12588 52.9583 3.16467 52.9545 3.20346 52.9506C3.2922 53.186 3.38095 53.4214 3.48513 53.7477ZM65.1178 52.3933C64.8065 52.1874 64.5249 51.865 64.1775 51.801C63.5444 51.6843 62.8721 51.7053 62.2163 51.7083C62.1009 51.7088 61.8878 51.9011 61.8865 52.0062C61.8657 53.7187 61.8718 55.4315 61.8718 57.1808C62.7355 57.1808 63.5475 57.2302 64.3434 57.1555C64.6434 57.1273 65.0856 56.8502 65.1533 56.6206C65.3859 55.8308 65.5474 55.0039 64.7927 54.2837C65.3833 53.7621 65.1534 53.1087 65.1178 52.3933ZM60.4998 53.4335C60.4994 52.1853 60.1021 51.7625 58.8011 51.7046C58.4383 51.6884 58.0552 51.7546 57.7044 51.8464C57.1384 51.9945 56.8517 52.3712 56.8432 52.8623C56.8243 53.9471 56.8216 55.0325 56.8436 56.1171C56.8559 56.7255 57.3216 57.1265 58.0303 57.1852C58.3358 57.2105 58.6457 57.2051 58.9533 57.2009C60.0136 57.1862 60.4819 56.797 60.497 55.8987C60.5101 55.1132 60.4998 54.3274 60.4998 53.4335ZM15.8295 52.355C15.939 52.157 16.0484 51.9589 16.164 51.7498C15.6289 51.5996 15.304 51.7002 15.0953 52.1339C14.867 52.6088 14.5668 53.0587 14.2606 53.5833C13.9671 53.0395 13.7001 52.5897 13.48 52.124C13.2725 51.685 12.9532 51.5939 12.4152 51.7939C12.8169 52.5323 13.2357 53.2263 13.566 53.9496C13.6835 54.207 13.6902 54.5719 13.5675 54.8245C13.1859 55.6104 12.7181 56.366 12.2804 57.1391C12.8727 57.3065 13.1972 57.163 13.4019 56.7053C13.6244 56.2078 13.9255 55.7357 14.2411 55.1643C14.5486 55.7214 14.8534 56.1769 15.0534 56.6635C15.2522 57.1472 15.563 57.3233 16.2149 57.1297C15.988 56.7268 15.8145 56.3021 15.5318 55.9387C14.7317 54.9103 14.6311 53.9051 15.515 52.8785C15.6296 52.7453 15.6908 52.5789 15.8295 52.355ZM10.5059 54.0494C10.3199 53.3779 10.1196 52.709 9.9542 52.0338C9.87602 51.7147 9.65145 51.6785 9.33382 51.6883C9.0374 51.6975 8.80358 51.6789 8.7164 52.0251C8.47786 52.9725 8.17845 53.9087 7.9086 54.8505C7.68786 55.6209 7.47497 56.3929 7.26441 57.1434C7.86398 57.3814 8.11416 57.2081 8.19411 56.7537C8.24519 56.4634 8.33746 56.1783 8.4211 55.8526C8.73367 55.8526 9.0158 55.8526 9.29792 55.8526C10.2422 55.8526 10.2846 55.8473 10.424 56.651C10.5166 57.1853 10.7799 57.3187 11.3541 57.1359C11.2253 56.6418 11.1015 56.1508 10.9687 55.6616C10.8306 55.153 10.6837 54.6461 10.5059 54.0494ZM47.1633 53.9806C47.17 54.6717 47.1576 55.3634 47.1893 56.0536C47.2187 56.692 47.5885 57.1116 48.2371 57.1597C48.948 57.2125 49.6685 57.1717 50.3782 57.1717C50.3782 56.2172 50.3782 55.3089 50.3782 54.3769C49.8759 54.3769 49.4026 54.3769 48.9076 54.3769C48.9076 54.5623 48.9076 54.7294 48.9076 54.8903C49.1734 54.9216 49.3838 54.9464 49.5857 54.9702C49.5857 55.5309 49.5857 56.0605 49.5857 56.6171C49.3707 56.6171 49.1974 56.617 49.0242 56.6171C48.1466 56.6178 47.9804 56.4817 47.9793 55.7543C47.9779 54.8576 47.99 53.9609 47.9745 53.0644C47.9661 52.5777 48.1939 52.334 48.7888 52.3397C49.2184 52.3439 49.6486 52.3054 50.0784 52.2859C50.0784 52.0661 50.0784 51.9061 50.0784 51.7491C47.5099 51.5465 47.0584 51.9877 47.1632 53.8132C47.1643 53.8318 47.1633 53.8506 47.1633 53.9806ZM91.9489 54.6716C92.1254 55.4017 92.333 56.1277 92.467 56.8634C92.5516 57.3279 92.9586 57.248 93.2619 57.2365C93.4424 57.2296 93.7265 57.0348 93.7686 56.8848C94.2459 55.1841 94.6854 53.4757 95.1358 51.7662C94.5861 51.5731 94.3451 51.7308 94.2387 52.1769C93.9341 53.455 93.6023 54.7284 93.2765 56.0028C93.2507 56.1038 93.1884 56.1982 93.1063 56.3745C92.7297 54.7527 92.3784 53.2396 92.0248 51.7168C91.7588 51.7168 91.5493 51.7168 91.2236 51.7168C91.4663 52.6978 91.6989 53.6379 91.9489 54.6716ZM72.7057 55.3012C72.7057 55.1014 72.7057 54.9016 72.7057 54.6512C73.4217 54.6512 74.0743 54.6512 74.7777 54.6512C74.7606 54.4448 74.7481 54.2926 74.7318 54.0947C74.0232 54.0947 73.3737 54.0947 72.7442 54.0947C72.7442 53.457 72.7442 52.8703 72.7442 52.232C73.5329 52.232 74.2713 52.232 75.0493 52.232C75.0164 52.018 74.9925 51.8624 74.9714 51.7253C73.9294 51.7253 72.9479 51.7253 71.9382 51.7253C71.9382 53.5609 71.9382 55.3633 71.9382 57.1703C72.9807 57.1703 73.984 57.1703 74.9873 57.1703C75.0261 57.1154 75.0649 57.0606 75.1036 57.0058C74.938 56.9029 74.7821 56.7273 74.605 56.7103C73.9991 56.652 73.3859 56.6494 72.7077 56.6229C72.7077 56.1855 72.7077 55.7949 72.7057 55.3012ZM34.3455 53.1506C33.7432 54.143 33.124 55.1284 32.5489 56.132C32.3759 56.434 32.3257 56.7869 32.202 57.1701C33.3877 57.1701 34.4521 57.1701 35.5584 57.1701C35.5469 56.9904 35.537 56.8354 35.5238 56.6281C34.7284 56.6281 33.9748 56.6281 33.1498 56.6281C33.9331 55.32 34.6945 54.0886 35.4042 52.8361C35.5887 52.5105 35.612 52.1188 35.7167 51.7302C34.5495 51.7302 33.5514 51.7302 32.5575 51.7302C32.5575 51.9256 32.5575 52.0834 32.5575 52.3016C33.3091 52.3016 34.0222 52.3016 34.8314 52.3016C34.6498 52.6127 34.5158 52.8421 34.3455 53.1506ZM109.349 53.0524C109.588 52.6175 109.827 52.1825 110.075 51.7315C109.31 51.6715 109.305 51.6693 109.019 52.1796C108.693 52.7624 108.378 53.3498 108.023 54.0001C107.678 53.3581 107.343 52.8107 107.09 52.237C106.883 51.7666 106.565 51.5809 105.892 51.7523C107.007 53.4387 108.045 55.1483 107.471 57.1776C107.875 57.1776 108.111 57.1776 108.414 57.1776C108.421 55.7691 108.262 54.345 109.349 53.0524ZM83.6681 57.162C83.6906 55.8761 83.7143 54.5902 83.7349 53.3043C83.7401 52.9765 83.7357 52.6485 83.7357 52.2699C84.2833 52.2699 84.7343 52.2699 85.2265 52.2699C85.2045 52.0587 85.1883 51.9029 85.1693 51.7208C83.9366 51.7208 82.753 51.7208 81.5159 51.7208C81.4964 51.8847 81.4755 52.061 81.4453 52.3157C81.9761 52.3157 82.4453 52.3157 82.9441 52.3157C82.9441 53.977 82.9441 55.5648 82.9441 57.199C83.1689 57.199 83.3625 57.199 83.6681 57.162ZM39.8883 56.6843C39.7157 56.5898 39.3951 56.4978 39.3927 56.4002C39.3598 55.0403 39.3704 53.6796 39.3704 52.2978C39.6304 52.2702 39.8819 52.2434 40.3499 52.1936C40.0989 51.9677 39.9646 51.7374 39.8127 51.7287C39.1182 51.6889 38.4187 51.7112 37.6837 51.7112C37.6969 51.9185 37.707 52.078 37.7166 52.2295C37.9961 52.2688 38.2292 52.3015 38.4769 52.3363C38.4769 53.775 38.4769 55.1876 38.4769 56.6042C38.21 56.65 37.9753 56.6902 37.7169 56.7346C37.7169 56.8802 37.7169 57.0192 37.7169 57.2033C38.4242 57.2033 39.1032 57.2172 39.781 57.1986C40.2694 57.1853 40.2419 56.9673 39.8883 56.6843ZM29.7854 51.6909C29.1549 51.6909 28.5244 51.6909 27.8633 51.6909C27.8633 51.9046 27.8633 52.0629 27.8633 52.2232C28.1216 52.2659 28.349 52.3035 28.5727 52.3405C28.5727 53.7883 28.5727 55.1993 28.5727 56.6037C27.7981 56.7373 27.7981 56.7373 27.9377 57.178C28.7036 57.178 29.4671 57.178 30.2545 57.178C30.2545 57.0139 30.2545 56.8741 30.2545 56.7263C29.9972 56.6863 29.7641 56.6501 29.5031 56.6095C29.5031 55.1669 29.5031 53.7376 29.5031 52.2746C29.7657 52.2648 29.9971 52.2561 30.2634 52.2461C30.2461 51.9834 30.4673 51.6658 29.7854 51.6909ZM97.7111 55.6615C97.7111 55.9736 97.7111 56.2857 97.7111 56.6033C97.4308 56.6518 97.2178 56.6886 96.9813 56.7294C96.9813 56.8852 96.9813 57.038 96.9813 57.1967C97.6224 57.221 98.2175 57.2265 98.8085 57.2711C99.3202 57.3097 99.413 57.1105 99.3068 56.7025C99.0663 56.7025 98.8351 56.7025 98.5917 56.7025C98.5917 55.2117 98.5917 53.7666 98.5917 52.3028C98.8659 52.2804 99.0974 52.2614 99.3711 52.2391C99.345 52.0432 99.3249 51.8913 99.3037 51.7313C98.4862 51.7313 97.7277 51.7313 96.9274 51.7313C96.9434 51.93 96.9562 52.0883 96.9678 52.2324C97.2352 52.27 97.4462 52.2997 97.7112 52.337C97.7112 53.4239 97.7112 54.4866 97.7111 55.6615ZM79.8491 56.7235C79.3997 56.6921 78.9508 56.6451 78.5007 56.6335C77.9838 56.6201 77.7295 56.4063 77.7276 55.9758C77.7233 54.9653 77.7248 53.9548 77.7269 52.9443C77.7278 52.5259 77.9807 52.3386 78.471 52.3447C78.8446 52.3493 79.2245 52.3516 79.5892 52.2959C79.7093 52.2776 79.8482 52.0811 79.8673 51.954C79.8785 51.8798 79.676 51.7141 79.5591 51.7065C79.1661 51.6811 78.7652 51.6835 78.3732 51.7201C77.3746 51.8135 76.9475 52.2255 76.928 53.0886C76.9124 53.7808 76.9042 54.4732 76.9031 55.1656C76.9001 57.045 77.116 57.2254 79.3117 57.2009C79.3778 57.2001 79.4725 57.2246 79.5048 57.1965C79.6417 57.0777 79.76 56.9435 79.8491 56.7235ZM102.862 57.1992C103.048 57.1911 103.235 57.183 103.461 57.1732C103.461 55.5302 103.461 53.9296 103.461 52.2901C103.959 52.2901 104.414 52.2901 104.881 52.2901C104.881 52.0754 104.881 51.9007 104.881 51.723C103.639 51.723 102.44 51.723 101.228 51.723C101.228 51.9177 101.228 52.0822 101.228 52.2946C101.7 52.2946 102.153 52.2946 102.654 52.2946C102.654 53.3285 102.645 54.3152 102.658 55.3017C102.666 55.93 102.708 56.558 102.862 57.1992ZM69.4543 56.8488C69.566 56.5938 69.7496 56.3437 69.7744 56.0827C69.8276 55.5253 69.8011 54.9621 69.8025 54.4013C69.8048 53.5114 69.8031 52.6214 69.8031 51.7213C69.0236 51.7213 68.3314 51.7213 67.6047 51.7213C67.6047 51.9082 67.6047 52.066 67.6047 52.2413C68.0843 52.2686 68.533 52.2942 69.0111 52.3215C69.0111 53.4257 69.0113 54.4704 69.011 55.5151C69.0107 56.5749 68.9656 56.613 67.7077 56.6333C67.5621 56.6356 67.4165 56.6452 67.251 56.6523C67.251 56.8546 67.251 57.0132 67.251 57.3323C68.0088 57.1819 68.6931 57.0461 69.4543 56.8488ZM19.5851 55.324C19.5851 54.3237 19.5851 53.3234 19.5851 52.3022C19.8929 52.2799 20.1254 52.263 20.3973 52.2433C20.384 52.0508 20.3732 51.8948 20.3611 51.7197C19.5567 51.7197 18.798 51.7197 18.0068 51.7197C17.9859 51.8968 17.9675 52.0519 17.9481 52.2157C18.252 52.2598 18.5019 52.2961 18.7329 52.3297C18.7329 53.7879 18.7329 55.199 18.7329 56.6031C17.9683 56.7398 17.9683 56.7398 18.0467 57.1752C18.8081 57.1752 19.5696 57.1752 20.3603 57.1752C20.3603 57.0119 20.3603 56.8716 20.3603 56.7312C20.0952 56.6904 19.8594 56.6541 19.5851 56.612C19.5851 56.2159 19.5851 55.8256 19.5851 55.324ZM87.8482 56.5108C87.7236 56.5638 87.6009 56.658 87.4741 56.6623C87.0289 56.6775 86.9892 56.8731 87.0842 57.1648C87.8996 57.1648 88.6814 57.1648 89.5022 57.1648C89.4741 56.9895 89.4521 56.8529 89.4322 56.7298C89.1442 56.7113 88.9102 56.6963 88.6809 56.6816C88.6809 55.2098 88.6809 53.7765 88.6809 52.328C88.9671 52.2885 89.2182 52.2539 89.449 52.2221C89.5624 51.8594 89.4492 51.6956 89.0176 51.7066C88.3847 51.7229 87.7508 51.7108 87.075 51.7108C87.0606 51.8943 87.0484 52.0505 87.0351 52.2196C87.3305 52.2606 87.5807 52.2954 87.8514 52.333C87.8514 53.7147 87.8514 55.0609 87.8482 56.5108Z" fill="white"/>
<path d="M30.9421 30.5662C30.9421 26.4508 30.9421 22.3916 30.9421 18.3323C30.9421 12.5571 35.6868 7.81102 42.3718 6.89919C48.2563 6.09654 54.2719 8.89125 56.6166 13.5343C57.3605 15.0075 57.7549 16.5499 57.7533 18.1615C57.7488 22.9503 57.7587 27.7391 57.7499 32.5279C57.7391 38.3358 52.6488 43.1757 45.8523 43.7972C42.0948 44.1407 38.6318 43.3244 35.7413 41.2926C32.6258 39.1027 31.0921 36.1473 30.9464 32.6987C30.9172 32.0074 30.9421 31.3145 30.9421 30.5662ZM42.368 12.2429C39.2898 13.2537 37.4034 15.5901 37.3893 18.3855C37.3669 22.7995 37.3206 27.2136 37.3143 31.6276C37.3122 33.1301 37.7176 34.555 38.6979 35.8364C40.3854 38.0421 43.2985 39.0642 46.0498 38.3504C48.991 37.5873 51.3094 35.353 51.311 32.6766C51.3134 28.3184 51.3511 23.9602 51.4015 19.6022C51.4208 17.9309 51.2103 16.3214 50.161 14.8551C48.4602 12.4784 45.5097 11.4596 42.368 12.2429Z" fill="white"/>
<path d="M102.523 34.2261C99.8848 34.2149 97.3115 34.2133 94.7387 34.1849C94.2993 34.1801 94.0896 34.2961 93.8998 34.6388C92.331 37.4725 90.7264 40.2918 89.1506 43.1227C88.8809 43.6072 88.5672 43.8612 87.8617 43.8342C86.3462 43.7764 84.8256 43.8193 83.3071 43.8134C83.0804 43.8126 82.854 43.7711 82.5196 43.7376C82.7627 43.2656 82.9479 42.8738 83.1625 42.4939C87.6808 34.4953 92.2012 26.4975 96.7239 18.5007C98.8137 14.8055 100.913 11.1143 102.997 7.4167C103.245 6.97614 103.526 6.74763 104.181 6.76173C106.666 6.81525 109.154 6.79876 111.641 6.80821C111.879 6.80911 112.117 6.80833 112.395 6.80833C112.395 19.1278 112.395 31.3908 112.395 43.6884C110.51 43.6884 108.63 43.6884 106.667 43.6884C106.667 40.5534 106.667 37.4371 106.667 34.2267C105.255 34.2267 103.922 34.2267 102.523 34.2261ZM106.619 28.3709C106.619 23.1524 106.619 17.934 106.619 12.7155C106.528 12.6976 106.438 12.6797 106.348 12.6617C103.221 18.1836 100.094 23.7055 96.9566 29.2456C100.204 29.2456 103.378 29.2456 106.619 29.2456C106.619 28.9571 106.619 28.7194 106.619 28.3709Z" fill="white"/>
<path d="M68.8811 39.5499C68.8808 40.8375 68.8808 42.069 68.8808 43.3339C67.0023 43.3339 65.1858 43.3339 63.2782 43.3339C63.2782 31.179 63.2782 19.0193 63.2782 6.81464C63.5341 6.81464 63.729 6.81505 63.9239 6.81458C68.6548 6.80318 73.3856 6.78546 78.1165 6.78198C82.8392 6.7785 86.0352 9.49637 86.0353 13.4991C86.0354 18.2512 86.0364 23.0034 86.035 27.7555C86.0339 31.3783 82.8088 34.1423 78.5384 34.1801C75.546 34.2065 72.5536 34.2288 69.5612 34.2527C69.3666 34.2542 69.1718 34.2529 68.8813 34.2529C68.8813 36.0286 68.8813 37.7612 68.8811 39.5499ZM68.8667 12.4422C68.8667 18.0991 68.8667 23.7561 68.8667 29.3926C72.1893 29.3926 75.4203 29.4086 78.6508 29.3836C79.7192 29.3753 80.3538 28.7464 80.3544 27.8113C80.3577 22.9498 80.3572 18.0884 80.355 13.2269C80.3545 12.1998 79.6373 11.5918 78.4308 11.5909C75.44 11.5889 72.4492 11.5897 69.4585 11.5916C69.27 11.5917 69.0815 11.6115 68.8667 11.6237C68.8667 11.8886 68.8667 12.1107 68.8667 12.4422Z" fill="white"/>
<path d="M26.3927 43.8052C24.6823 43.8098 23.0316 43.8006 21.3816 43.8262C20.9603 43.8327 20.7564 43.7014 20.5826 43.3916C18.6353 39.9207 16.6682 36.4577 14.7204 32.9869C14.3251 32.2825 13.9878 31.5546 13.5853 30.7617C12.779 32.1735 12.0104 33.5084 11.2528 34.8478C9.67569 37.6364 8.09697 40.4245 6.53837 43.2206C6.29226 43.6622 5.98887 43.848 5.38364 43.8315C3.8228 43.7889 2.25926 43.8204 0.696828 43.8158C-0.00444899 43.8138 -0.0613504 43.7473 0.24378 43.2049C1.95603 40.1609 3.67643 37.1203 5.3967 34.0796C6.93634 31.3582 8.46958 28.6341 10.0311 25.9218C10.2779 25.4931 10.2752 25.1394 10.0346 24.7151C6.81543 19.0402 3.61086 13.3592 0.404226 7.67909C0.273599 7.4477 0.158411 7.21001 0 6.90614C0.270968 6.85535 0.471558 6.78609 0.672643 6.78504C2.34506 6.77626 4.01789 6.79535 5.68985 6.77009C6.1478 6.76317 6.29146 6.98108 6.44899 7.25953C8.48289 10.8545 10.5204 14.448 12.5574 18.0417C12.8585 18.573 13.1614 19.1037 13.5136 19.7229C14.3704 18.2169 15.1803 16.8032 15.9801 15.3855C17.497 12.6964 19.0135 10.0072 20.5155 7.31222C20.7266 6.93354 20.98 6.75612 21.5117 6.76779C23.0731 6.80205 24.6363 6.77714 26.1987 6.78312C26.4297 6.784 26.6605 6.82668 26.9731 6.85829C26.858 7.14637 26.7953 7.37852 26.6771 7.58802C24.5147 11.4197 22.3467 15.249 20.1777 19.078C19.0742 21.0261 17.9564 22.9685 16.8763 24.926C16.7707 25.1174 16.8001 25.4312 16.9109 25.6302C19.0493 29.4743 21.2053 33.3114 23.3664 37.1464C24.4868 39.1346 25.6315 41.1129 26.7453 43.1037C26.8946 43.3706 27.3135 43.8049 26.3927 43.8052Z" fill="white"/>
<path d="M121.708 12.8462C123.986 8.79697 126.255 4.79065 128.486 0.769432C128.798 0.208055 129.148 -0.0401063 129.915 0.00524685C131.074 0.0739009 132.244 0.0231781 133.451 0.0231781C133.451 6.21131 133.451 12.3756 133.451 18.5753C132.532 18.5753 131.619 18.5753 130.591 18.5753C130.591 17.0176 130.591 15.4581 130.591 13.8529C128.523 13.8529 126.57 13.8441 124.617 13.869C124.455 13.8711 124.236 14.0757 124.146 14.2295C123.378 15.5531 122.621 16.8814 121.892 18.2207C121.695 18.5825 121.433 18.6922 120.981 18.6739C120.193 18.6419 119.402 18.665 118.463 18.665C119.567 16.6841 120.627 14.7842 121.708 12.8462ZM130.54 3.70323C130.54 3.50133 130.54 3.29943 130.54 3.09753C130.492 3.09707 130.444 3.09661 130.395 3.09615C128.881 5.79713 127.367 8.49812 125.838 11.2265C127.454 11.2265 128.98 11.2265 130.54 11.2265C130.54 8.7328 130.54 6.27064 130.54 3.70323Z" fill="white"/>
<path d="M137.122 11.7025C137.122 7.79591 137.122 3.94544 137.122 0.0579237C138.095 0.0579237 139.026 0.0579237 140 0.0579237C140 6.23606 140 12.3996 140 18.6098C139.081 18.6098 138.168 18.6098 137.122 18.6098C137.122 16.3402 137.122 14.0494 137.122 11.7025Z" fill="white"/>
<path d="M64.4961 55.0036C64.5096 55.1832 64.514 55.3136 64.5142 55.4441C64.5171 56.7187 64.2561 56.8891 62.6729 56.6176C62.6729 55.981 62.6729 55.3378 62.6729 54.617C63.3115 54.6846 63.9882 54.3724 64.4961 55.0036Z" fill="white"/>
<path d="M63.7477 52.2606C64.4469 52.4593 64.5637 52.6803 64.4558 53.4593C64.3919 53.9208 64.0687 54.0881 63.5558 54.0701C63.2749 54.0602 62.9932 54.0683 62.6729 54.0683C62.6729 53.4821 62.6729 52.9119 62.6729 52.2577C63.0124 52.2577 63.3518 52.2577 63.7477 52.2606Z" fill="white"/>
<path d="M58.3601 52.287C59.5461 52.2569 59.7328 52.4055 59.7329 53.3324C59.733 54.1895 59.7386 55.0467 59.7309 55.9037C59.726 56.4456 59.448 56.6556 58.7275 56.6885C57.9794 56.7227 57.5898 56.5071 57.5735 55.9715C57.5435 54.9846 57.56 53.9967 57.5653 53.0092C57.5675 52.5942 57.824 52.3547 58.3601 52.287Z" fill="white"/>
<path d="M9.04692 53.1683C9.12423 52.8601 9.19038 52.5977 9.25652 52.3352C9.29424 52.3368 9.33195 52.3384 9.36966 52.34C9.62209 53.286 9.87452 54.2321 10.1383 55.2206C9.59336 55.2206 9.12176 55.2206 8.56583 55.2206C8.72446 54.5432 8.88012 53.8786 9.04692 53.1683Z" fill="white"/>
</svg>
